<?xml version="1.0" encoding="UTF-8" standalone="no"?>
<svg style="font-size:13.2px;font-family:Liberation Serif,TimesNewRoman" xmlns="http://www.w3.org/2000/svg" enable-background="new 0 0 354 354.542" height="354.5px" width="354px" version="1.1" y="0px" x="0px" xmlns:xlink="http://www.w3.org/1999/xlink" xml:space="preserve" viewBox="0 0 354 354.542"><defs><linearGradient id="b" y2="601.1" gradientUnits="userSpaceOnUse" x2="322.6" y1="605.2" x1="320.6"><stop style="stop-color:#888" offset="0"/><stop style="stop-color:#aeaeae;stop-opacity:0" offset="1"/></linearGradient><linearGradient id="a" y2="614.9" gradientUnits="userSpaceOnUse" x2="328.5" y1="617" x1="330.5"><stop offset="0"/><stop style="stop-opacity:.4980" offset=".4175"/><stop style="stop-opacity:0" offset="1"/></linearGradient></defs>
<use xlink:href="#c" transform="translate(-127.7 93)" height="354.54199" width="354" y="0" x="0"/><g id="c" transform="translate(-76.91 -395.9)"><path style="stroke:#000;stroke-width:.175;fill:#c9c9c9" d="m320.9 635.5c-1.186-0.1523-1.988-0.4521-2.495-0.9334-0.6171-0.5852-1.123-1.416-1.401-2.303-0.1199-0.3818-0.1375-0.5546-0.1345-1.323 0.003-0.7959 0.0191-0.9308 0.1616-1.36 0.7172-2.16 3.304-4.229 6.215-4.968 0.2488-0.0632 0.8499-0.1715 1.336-0.2406 0.4859-0.0691 1.109-0.1775 1.384-0.241 2.496-0.5753 7.136-2.468 9.68-3.949 1.712-0.9964 2.064-1.381 2.064-2.258 0-0.2268-0.0346-0.5183-0.0769-0.6479-0.1978-0.606-0.8805-1.738-1.048-1.738-0.0619 0-1.88 0.4648-1.94 0.4958-0.005 0.003 0.0313 0.2434 0.0808 0.5349s0.0935 0.8669 0.0976 1.279l0.007 0.7484-0.324 0.3312c-0.1782 0.1821-0.6589 0.6473-1.068 1.034l-0.7443 0.7025-2.053 0.4127c-1.129 0.227-2.499 0.5213-3.043 0.654-0.5444 0.1327-1.003 0.228-1.019 0.2118-0.0162-0.0162 0.0131-0.1935 0.065-0.3941 0.2809-1.084 0.98-2.007 1.806-2.385 0.5949-0.2722 1.062-0.3511 2.091-0.3533 0.5233-0.001 0.9443-0.0153 0.9354-0.0315-0.088-0.1613-0.9941-1.743-1.007-1.758-0.01-0.0113-0.2778 0.0715-0.5959 0.1842-1.423 0.5039-2.857 0.6152-3.716 0.2886l-0.2891-0.1098-0.4574 0.9185c-1.202 2.413-1.674 3.023-3.262 4.217l-0.51 0.3833-0.854-0.0308c-0.4697-0.0169-1.185-0.0445-1.59-0.0614l-0.7362-0.0306-0.0965 0.2325c-0.1097 0.2642-0.4786 0.5608-0.8277 0.6654-0.2188 0.0656-0.236 0.0603-0.4329-0.1304-0.3421-0.3316-0.4589-0.6428-0.4265-1.136 0.0317-0.4827 0.2108-0.8906 0.6565-1.495 0.5042-0.6841 0.9587-0.8071 2.993-0.8099l1.454-0.002 0.4113-0.8672 0.4113-0.8672-0.1976-0.1735c-0.1087-0.0954-0.3781-0.2719-0.5986-0.3921s-0.5385-0.3071-0.7066-0.4153l-0.3056-0.1967-0.0917 0.3074c-0.3632 1.218-0.5594 1.778-0.6296 1.799-0.3609 0.1063-1.852 0.7279-2.366 0.986-0.7454 0.3746-1.214 0.6811-1.769 1.156-0.607 0.5198-0.8027 0.6064-1.365 0.6034-0.3903-0.002-0.5268-0.0299-0.7951-0.1622-0.1782-0.0878-0.4035-0.2253-0.5006-0.3055l-0.1767-0.1458 1.341-1.342 1.341-1.342 1.223-0.6092 1.223-0.6093 0.3748-1.087 0.3748-1.087-0.4063-0.4119c-0.897-0.9093-2.279-1.63-3.056-1.856-0.3608-0.105-0.7413-0.2278-1.066-0.2615-0.8688-0.1548-3.051-0.2202-4.016-0.1203-0.7893 0.0818-1.668 0.1005-2.017 0.043-0.2148-0.0547-0.3507-0.1573-0.4701-0.2996-0.033-0.0393-0.0469-0.0923-0.0589-0.1422-0.0407-0.1692-0.0549-0.3469-0.0416-0.5204 0.007-0.0956 0.0242-0.1936 0.0662-0.2798 0.0774-0.1591 0.2062-0.2896 0.3312-0.4148 0.0545-0.0546 0.156-0.1447 0.1805-0.1447s0.288-0.1389 0.5854-0.3088l0.5408-0.3088 0.4067-0.2627 0.2184-0.1227c0.7312-0.4109 1.595-1.164 3.477-3.032l1.966-1.951-0.2435-0.3202c-0.3572-0.4698-0.4932-0.8737-0.4678-1.389 0.0185-0.375 0.0455-0.457 0.2467-0.7491 0.2488-0.3613 0.8631-0.8913 1.272-1.098 0.5091-0.257 1.028-0.15 1.58 0.3255 0.5511 0.4752 0.625 1.018 0.2777 2.039-0.1134 0.3334-0.206 0.6204-0.2057 0.6376 0.00024 0.0173 0.1171 0.0367 0.2598 0.043 0.2443 0.0109 0.2653-0.00075 0.3601-0.2005 0.0554-0.1167 0.2033-0.5175 0.3287-0.8908 0.2677-0.7969 0.5675-1.328 1.007-1.786 0.662-0.689 1.408-1.021 2.196-0.9788 0.5506 0.0297 0.8691 0.166 1.252 0.5359 0.6174 0.5961 0.6433 1.648 0.0716 2.909-0.0964 0.2126-0.1752 0.3928-0.1752 0.4005 0 0.008 0.3379-0.1308 0.751-0.3076 1.922-0.8233 3.901-1.432 5.522-1.697 0.9379-0.1538 2.164-0.1773 3.092-0.0592 2.383 0.3031 3.452 0.7418 4.476 1.837 0.6613 0.7073 1.523 2.002 1.768 2.657 0.2455 0.6563 0.3146 1.118 0.3149 2.104 0.00029 1.199-0.2114 2.407-0.6334 3.615l-0.1431 0.4096 0.3334 0.2212c0.9622 0.6382 1.763 1.701 1.982 2.63 0.295 1.251-0.1985 2.885-1.321 4.374-0.8414 1.116-2.108 2.197-3.361 2.871-1.405 0.7546-6.816 2.601-9.365 3.195-3.307 0.771-6.42 2.501-7.142 3.969-0.1746 0.355-0.1908 0.4356-0.1908 0.9484 0 0.5387 0.009 0.5776 0.2325 1.002 0.1947 0.3699 0.3922 0.5997 1.215 1.414 0.9286 0.9185 1.161 1.215 1.253 1.6 0.0713 0.297 0.008 0.3441-0.4544 0.3359-0.2314-0.004-0.593-0.0296-0.8036-0.0566z"/><path d="m309.3 611.7c-0.0238-0.0385-0.005-0.0921 0.0407-0.1192 0.0462-0.027 0.5345-0.3299 1.085-0.6731 1.364-0.8498 1.916-1.105 1.958-0.9038 0.0126 0.0608-0.1065 0.1437-0.3738 0.2602-0.2158 0.094-0.786 0.4176-1.267 0.719-0.799 0.5005-1.298 0.7869-1.371 0.7869-0.0156 0-0.0478-0.0315-0.0716-0.07z"/><path style="fill:url(#b)" d="m320.6 605.1c-0.5661-0.0611-0.7616-0.2592-1.517-0.7851 0.1359-0.8501 1.166-2.527 1.835-2.988 0.4046-0.2789 1.172-0.4393 1.69-0.2067 0.5037 0.2263 0.6822 0.5076 0.7599 0.8898 0.1786 0.8782-0.1264 1.537-0.8088 2.564-0.2203 0.3393-1.287 0.5991-1.959 0.5265z"/><path style="stroke:#000;stroke-width:.075;fill:#020202" d="m309.2 612.2c0.0731-0.2204 1.392-0.5762 2.118-0.5715 0.6345 0.004 1.32 0.1475 1.151 0.241-0.008 0.004-0.2495-0.0251-0.5364-0.0659-0.8041-0.1142-1.642 0.00059-2.376 0.3256-0.3772 0.1668-0.3888 0.1691-0.3562 0.0708z"/><path style="stroke:#000;stroke-width:.175;fill:none" d="m330.4 617-0.928-1.94c-0.0157-0.0486-0.1154-0.3269-0.2215-0.6184-0.176-0.4836-0.193-0.5896-0.1931-1.207-0.0003-1.076 0.2568-1.73 0.9882-2.513 0.7206-0.7716 1.488-1.224 1.966-1.355"/><path style="fill:url(#a)" d="m325.9 617.4c1.165 0.5322 3.081 0.1533 4.574-0.441-0.7188-1.625-1.538-2.668-1.314-4.258z"/><path d="m316.9 608.6c-0.5555-0.2736-0.5498-1.067 0.01-1.332 0.4201-0.1994 0.9445-0.0432 1.124 0.3346 0.1234 0.26 0.1217 0.4303-0.007 0.6811-0.1926 0.3762-0.7103 0.5217-1.127 0.3166z"/><path style="fill:#c9c9c9" d="m317 607.9c0.1252-0.1426 0.1708-0.3225 0.1073-0.4237-0.1253-0.1996-0.5439 0.2009-0.4542 0.4346 0.0472 0.1229 0.2345 0.117 0.3469-0.011z"/><path style="fill:#fff" d="m317.1 607.8c0.1447-0.2703-0.0187-0.4037-0.2443-0.1995-0.105 0.0951-0.145 0.3168-0.0705 0.3913 0.0545 0.0545 0.2452-0.0616 0.3148-0.1917z"/><path style="stroke-linejoin:round;stroke:#000;stroke-linecap:round;stroke-width:.15" d="m308.8 611.6c0.4642-0.5058 0.7269-1.063 0.9596-1.678 0.2972-0.6652 0.5896-1.628 0.621-2.037-0.3663 1.544-0.9762 3.02-1.606 3.655-0.0884-0.1823-0.2586-0.5474-0.2828-0.6238-0.1913 0.0782-0.2946 0.1911-0.4435 0.3837-0.4732-0.3491-0.8609-0.5343-1.456-1.603-0.1826-0.406-0.17-0.4664-0.1274-0.1958 0.0902 0.1681 0.4555 1.104 1.557 1.833-0.1378 0.1468-0.1552 0.3831-0.207 0.6757-0.5102 0.0436-1.048-0.1311-1.565-0.2244 0 0.0654 0.8626 0.2564 1.259 0.3022 0.3026 0.0349 0.2948-0.005 0.3536 0.1888 0.0321 0.1057 0.1973 0.2843 0.1487 0.3111-0.2402 0.1322-0.9453 0.8006-0.9453 1.004 0.3502-0.4116 0.5108-0.622 0.8209-0.8493l0.189-0.0985c0.293 0.125 0.4945 0.2138 1.135 0.1422-0.2091-0.547-0.2988-0.8315-0.4114-1.185z"/></g><g transform="translate(-107.5 -472.3)"><path style="stroke:#000;stroke-width:.175;fill:#cacaca" d="m310.7 645.9c-0.684-0.205-1.043-0.7875-1.396-2.265-0.1759-0.7363-0.1958-1.355-0.1704-5.289 0.0438-6.767-0.2298-11.09-0.9987-15.79-0.1269-0.7755-0.3054-1.672-0.3967-1.991-0.0958-0.3356-0.1327-0.7138-0.0874-0.8945 0.046-0.1832 0.6917-0.9498 1.556-1.847 1.786-1.855 2.151-2.449 2.15-3.501-0.001-1.358-0.7508-2.489-2.437-3.677-0.8671-0.6111-1.634-1.412-2.108-2.201-0.4304-0.717-0.6029-1.369-0.631-2.387-0.026-0.9381-0.057-1.049-0.6012-2.143-0.5041-1.014-0.9502-1.732-2.364-3.805-0.7796-1.143-0.934-2.667-0.4308-4.252 0.3497-1.102 0.8614-1.87 2.023-3.037 1.341-1.346 2.4-1.943 2.587-1.457 0.0729 0.1899-0.0388 0.9082-0.3778 2.43-0.1608 0.7216-0.2599 1.664-0.3036 2.884-0.0705 1.971 0.0501 3.053 0.4214 3.78 0.5842 1.145 1.482 1.041 3.218-0.3716 1.872-1.524 3.167-2.278 4.504-2.624 2.508-0.6484 6.525-0.4164 9.983 0.5766 3.455 0.9924 3.671 1.015 5.239 0.5603 1.249-0.3626 2.741-0.5566 3.56-0.463 1.261 0.1441 3.439-0.3123 3.849-0.8067 0.1815-0.2187 0.0501-0.3414-0.8882-0.8288-1.04-0.5401-1.416-1.083-1.475-2.128-0.0391-0.6918-0.006-0.8389 0.3473-1.546 0.92-1.841 1.387-4.274 0.9016-4.698-0.1086-0.0947-0.4619-0.2583-0.7852-0.3635-1.342-0.4368-2.68-2.678-3.079-5.159-0.0731-0.4543-0.1155-1.421-0.0941-2.148 0.0461-1.567 0.112-1.679 1.036-1.755 0.7315-0.0607 1.275 0.1 2.088 0.6172 1.366 0.8694 2.309 2.012 3.287 3.982 0.9487 1.911 1.424 2.274 3.768 2.874 1.266 0.3242 2.211 0.4498 2.39 0.3175 0.0669-0.0494 0.2683-0.3619 0.4475-0.6943 1.041-1.93 5.442-4.581 8.017-4.83 0.6143-0.0593 0.7179-0.0387 0.9437 0.187 0.3602 0.3602 0.2684 1.084-0.2719 2.144-1.151 2.258-3.133 4.65-4.943 5.965-0.5297 0.3849-1.096 0.901-1.259 1.147-0.1897 0.2866-0.4176 0.9632-0.6352 1.885-0.4227 1.792-0.6429 2.471-1.49 4.596-0.371 0.9306-0.9687 2.555-1.328 3.61-0.7004 2.055-0.8966 2.513-1.712 4.004-0.3071 0.5613-0.6828 1.5-0.9061 2.263-0.5718 1.955-1.283 3.081-3.506 5.549l-0.7884 0.8756 0.0704 5.159c0.0877 6.429 0.2864 9.086 0.9341 12.49 0.7784 4.093 1.823 6.766 3.538 9.057 1.044 1.395 1.189 2.112 0.4735 2.344-0.7157 0.2322-2.396-0.1635-3.781-0.8902-0.8078-0.424-1.027-0.7222-0.9266-1.259 0.1025-0.5463-0.0764-1.102-0.6727-2.089-0.6648-1.1-0.8263-1.673-0.9592-3.399-0.2084-2.708-0.882-6.356-1.571-8.505-0.4418-1.379-0.6429-2.58-0.7358-4.395-0.0413-0.8065-0.1458-1.925-0.2323-2.486-0.1873-1.215-0.5957-2.6-0.7259-2.462-0.3141 0.3331-1.057 3.35-1.191 4.836-0.1143 1.268-0.4581 2.554-1.11 4.149-0.7731 1.892-1.121 3.001-1.425 4.546-0.3106 1.577-0.4245 4.264-0.2282 5.384 0.19 1.085 0.7433 2.802 1.013 3.145 0.7068 0.8986 0.1394 1.682-1.203 1.661-0.7276-0.0116-1.207-0.2023-1.686-0.6705-0.8511-0.8322-1.286-2.16-1.286-3.926 0.00023-1.404 0.0965-1.97 0.6843-4.024 0.6647-2.323 1.115-5.042 1.411-8.516 0.0396-0.4653 0.1977-1.861 0.3513-3.102s0.3099-3.039 0.3474-3.995c0.0612-1.562 0.0499-1.732-0.1117-1.67-1.354 0.5197-4.615 0.4756-6.624-0.0894-0.1101-0.031-0.3254 0.1973-0.6166 0.6538-1.032 1.618-3.385 3.671-5.974 5.211l-1.27 0.7557 0.2175 0.7515c0.1586 0.5479 0.2419 1.332 0.3076 2.895 0.0836 1.989 0.1151 2.213 0.438 3.112 0.7438 2.07 1.767 4.004 4.041 7.634 0.7096 1.133 1.384 2.331 1.498 2.663 0.1141 0.3316 0.4394 0.9179 0.7229 1.303 0.7759 1.054 0.8298 1.762 0.1605 2.108-0.5341 0.2762-1.89 0.1744-2.703-0.2029-0.7536-0.3498-0.9195-0.6118-1.092-1.724-0.0717-0.4631-0.2149-0.9034-0.3485-1.072-0.5498-0.6923-1.278-1.86-2.013-3.226-0.8565-1.592-2.79-5.62-3.137-6.535l-0.2141-0.564-0.0328 1.07c-0.0391 1.276 0.3636 8.202 0.6068 10.44 0.185 1.699 0.4901 3.257 0.7621 3.892 0.093 0.2171 0.4015 0.6151 0.6855 0.8844 0.3734 0.354 0.5164 0.5769 0.5164 0.805 0 0.5197-0.5078 0.6814-2.104 0.6698-0.7351-0.005-1.482-0.0532-1.659-0.1063z"/><g style="stroke-width:.1;fill:#636363"><path style="stroke:#000;stroke-width:.1;fill:#636363" d="m336.4 595c-0.4594-0.3866-0.4599-0.7985-0.001-1.238 0.2784-0.2667 0.4453-0.3313 0.8558-0.3313 0.4189 0 0.5586 0.0565 0.7822 0.3165 0.3328 0.3869 0.3483 0.7918 0.0421 1.098-0.515 0.515-1.178 0.5761-1.679 0.1547z"/><path style="stroke:#000;stroke-width:.1;fill:#636363" d="m343.1 592.6c-0.1241-0.0508-0.3148-0.1916-0.4239-0.3129-0.1892-0.2105-0.1892-0.2288 0.00023-0.4003 0.4325-0.3914 1.32-0.5513 1.586-0.2856 0.0744 0.0744 0.1354 0.2801 0.1354 0.457 0 0.2604-0.0745 0.3527-0.3912 0.485-0.4362 0.1823-0.5778 0.1911-0.906 0.0568z"/><path style="stroke:#000;stroke-width:.1;fill:#636363" d="m337.6 590.9c-0.136-0.0548-0.3337-0.2315-0.4393-0.3928-0.1678-0.256-0.1724-0.33-0.0366-0.5837 0.2471-0.4618 0.4451-0.4577 0.8561 0.0178 0.4253 0.492 0.4734 0.7862 0.1565 0.9558-0.2493 0.1334-0.213 0.1332-0.5366 0.003z"/><path style="stroke:#000;stroke-width:.1;fill:#636363" d="m351.9 585.3c-0.1012-0.1012 0.0141-0.3596 0.5483-1.23 0.2666-0.4343 0.5671-0.9867 0.6678-1.228l0.183-0.4381-0.5436 0.0531c-0.299 0.0292-0.995 0.2375-1.547 0.463-0.9966 0.4072-1.196 0.4303-1.196 0.1379 0-0.4517 1.488-1.127 2.794-1.268 0.7212-0.0779 1.042 0.1382 1.042 0.7026 0 0.4781-0.5796 1.583-1.206 2.299-0.4948 0.5656-0.607 0.6425-0.7414 0.5081z"/><path style="stroke:#000;stroke-width:.1;fill:#636363" d="m333.4 583.6c-0.3314-0.3528-0.5068-1.522-0.4079-2.72 0.1176-1.426 0.4383-1.812 1.232-1.48 0.7187 0.3003 2.466 2.15 2.563 2.713 0.0878 0.508-0.3582 0.2366-1.471-0.8952-0.6421-0.6531-1.237-1.188-1.322-1.188-0.244 0-0.3095 0.5068-0.217 1.678 0.1739 2.2 0.1281 2.43-0.3776 1.892z"/></g></g><g fill="none">
<path stroke="#000" d="m68.33 151"/>
<path stroke="#000" stroke-width="3" d="m73.33 267"/>
<path stroke="#2B338C" stroke-width="4" stroke-dasharray="12" d="m67.41 145.9c11.28-55.88 60.53-97.94 119.6-97.94 67.39 0 122 54.77 122 122.3"/><g stroke="#000" stroke-width="3">
<path d="m68.74 144.9"/>
<path d="m67.26 154"/>
<path d="m67.26 154"/>
</g></g><polygon stroke="#2B338C" stroke-width="3" fill="#2B338C" points="58.36 151.7 65.65 155.5 73.51 156.7 61.57 171.5"/>
<path stroke="#000" stroke-width="3" d="m319.3 266" fill="none"/>
<text style="font-size:18px;font-family:Arial;font-weight:bold" transform="translate(12.33 22.33)"><tspan y="0" x="0">Life Cycle of the </tspan><tspan y="0" x="144.483" style="font-style:italic">Ixodes scapularis</tspan><tspan y="0" x="291.621"> </tspan><tspan y="0" x="297.044">Tick</tspan></text>
<g stroke="#2B338C" stroke-width="4" fill="none">
<path stroke-dasharray="12" d="m66.45 258.9c-16-14.12-25.85-31.66-25.12-51.2"/>
<path d="m93.97 277c-10.31-5.113-19.66-11.22-27.52-18.16"/>
<path d="m93.97 277"/>
<path d="m309 168.3c1.289 11.77-1.21 21.15-3.791 33.35-12.87 60.81-84.09 101.6-159.1 91.22-6.733-0.938-13.42-2.269-19.96-3.965"/>
<path d="m64.86 197.6c-0.461-3.223-0.646-6.517-0.532-9.872"/>
<path d="m242.8 251c-24.76 16.36-56.61 24-89.3 18.97-39.08-6.021-76.25-29.32-86.45-61"/>
<path d="m242.8 251"/>
<path d="m289.3 181.6c-0.153 0.813-0.31 1.639-0.471 2.479-3.605 18.86-12.6 35.68-25.31 49.41"/>
<path d="m289.3 181.6"/>
<path d="m291.4 152.7"/></g><g stroke="#2B338C" fill="#2B338C">
<polygon stroke-width="3" points="295.6 192.7 288.3 188.8 280.5 187.6 292.5 172.9"/>
<polygon stroke-width="3" points="60.78 266 66.95 260.5 70.8 253.6 80.46 269.9"/>
<circle cx="41" cy="205" stroke-width="4" r="6"/>
</g><text transform="translate(10 193.7)">Egg</text>
<text font-size="12" style="font-weight:bold;font-style:italic" transform="translate(13.67 250.3)">1 month</text>
<text transform="translate(78.67 291)">Larvae</text>
<g style="font-size:16px;font-family:Arial;font-weight:bold;fill:#46C7F2">
<text transform="translate(5.667 165)">Spring</text>
<text transform="translate(153 345.7)">Summer</text>
<text transform="translate(318 165.7)">Fall</text>
<text transform="translate(156.7 41)">Winter</text>
</g><text transform="translate(40.67 184.3)">Nymph</text>
<circle stroke-width="4" stroke="#2B338C" cy="194.7" cx="106.3" r="6" fill="#2B338C"/>
<text transform="translate(115.7 187.3)"><tspan y="0" x="0">Eggs Deposited</tspan><tspan y="16.8" x="0">Adults Die</tspan></text>
<polygon stroke="#2B338C" stroke-width="3" fill="#2B338C" points="272.2 117.8 264.7 121.4 259.1 127 254.4 108.6"/>
<text font-size="12" style="font-weight:bold;font-style:italic" transform="translate(89.67 161.3)">3 weeks</text>
<line y2="196.5" stroke-width="2" y1="205.2" stroke="#2B338C" stroke-dasharray="6.1228" x2="100.4" x1="44.92" fill="none"/>
<g stroke="#2B338C">
<path stroke-width="4" stroke-dasharray="12" d="m271.2 170" fill="none"/>
<path stroke-width="4" stroke-dasharray="12" d="m106.7 149.3c7.674-47.35 41.19-83 81.38-83 28.64 0 53.9 18.11 68.82 45.66" fill="none"/>
<polygon stroke-width="3" fill="#2B338C" points="98.78 164.3 106.7 166.6 114.6 166.2 105.9 183.1"/>
</g>
<text transform="translate(154.5 120.3)"><tspan y="0" x="0">Feeds once, </tspan><tspan y="19.2" x="-31.033">(Deer is preferred host)</tspan></text>
<text transform="translate(134.6 229)"><tspan y="0" x="0">Feeds once, 3-4 days</tspan><tspan y="16.8" x="-12.243">(Mouse is preferred host)</tspan></text>
<text transform="translate(133.8 309.7)"><tspan y="0" x="0">Feeds once, 2 days</tspan><tspan y="16.8" x="-18.074">(Mouse is preferred host)</tspan></text>
<path stroke="#2B338C" stroke-width="2" d="m290.8 167.5s-28.5-10.75-28-46.25" fill="none"/>
<path stroke="#2B338C" stroke-width="2" d="m293.3 166.3s4.412-30.14-26.88-46.91" fill="none"/>
<text style="font-size:22px;font-family:Arial;line-height:125%;font-weight:bold;stroke:#000;stroke-width:.5;font-style:oblique;fill:#000" transform="rotate(15)" y="89.899551" x="280.78821">♂</text>
<text y="206.34587" x="239.80994" style="font-size:22px;font-family:Arial;line-height:125%;font-weight:bold;stroke:#000;stroke-width:.5;font-style:oblique;" transform="rotate(-15)">♀</text>
</svg>
