<?xml version="1.0" standalone="no"?>
<!DOCTYPE svg PUBLIC "-//W3C//DTD SVG 20010904//EN"
 "http://www.w3.org/TR/2001/REC-SVG-20010904/DTD/svg10.dtd">
<svg version="1.0" xmlns="http://www.w3.org/2000/svg"
 width="1875.000000pt" height="2568.000000pt" viewBox="0 0 1875.000000 2568.000000"
 preserveAspectRatio="xMidYMid meet">
<metadata>
Created by potrace 1.16, written by Peter Selinger 2001-2019
</metadata>
<g transform="translate(0.000000,2568.000000) scale(0.100000,-0.100000)"
fill="#000000" stroke="none">
<path d="M1628 25665 c-26 -27 4 -58 146 -152 136 -90 186 -133 255 -217 74
-91 282 -284 484 -449 87 -71 167 -143 180 -160 31 -43 335 -347 434 -435 56
-49 83 -81 88 -102 17 -76 74 -147 192 -242 23 -18 108 -91 188 -163 148 -131
238 -200 307 -236 23 -11 66 -55 107 -107 97 -122 253 -261 441 -392 52 -36
148 -118 214 -182 67 -64 137 -129 156 -144 19 -15 54 -46 78 -68 37 -35 41
-44 36 -72 -9 -48 13 -79 127 -184 234 -214 329 -290 472 -374 51 -30 109 -70
128 -88 48 -45 164 -146 194 -170 14 -11 25 -29 25 -40 0 -20 84 -113 261
-288 42 -42 84 -90 93 -108 9 -18 20 -32 24 -32 5 0 17 -6 27 -14 15 -11 17
-17 7 -28 -13 -17 1 -87 22 -103 7 -5 20 -24 29 -42 9 -17 49 -60 89 -95 40
-35 94 -83 121 -108 l49 -46 -26 -48 c-15 -29 -26 -65 -26 -88 0 -32 4 -40 25
-48 14 -5 25 -14 25 -19 0 -6 -18 -36 -40 -67 -22 -32 -40 -62 -40 -68 0 -6
21 -42 46 -81 l46 -70 -20 -50 c-29 -71 -33 -87 -34 -141 0 -27 -5 -56 -11
-65 -15 -25 1 -86 32 -122 l29 -32 -25 -80 c-13 -44 -27 -107 -30 -140 -5 -60
-4 -60 36 -100 45 -43 48 -56 26 -108 -9 -21 -15 -67 -15 -110 0 -54 4 -78 15
-87 23 -19 18 -40 -19 -96 -45 -67 -55 -110 -49 -224 6 -129 6 -148 -8 -198
-8 -29 -9 -68 -4 -120 5 -42 7 -128 6 -190 -3 -112 11 -227 32 -267 6 -11 12
-56 14 -100 1 -44 9 -97 16 -118 10 -28 11 -54 5 -100 -9 -63 -4 -169 8 -189
4 -6 11 -86 14 -177 5 -100 14 -188 23 -221 9 -30 24 -113 33 -185 9 -76 27
-163 43 -210 16 -44 31 -112 34 -151 7 -72 16 -108 60 -229 15 -38 36 -110 48
-160 12 -49 35 -119 51 -155 16 -36 33 -74 38 -85 4 -11 14 -54 20 -95 15 -89
37 -156 78 -236 17 -32 47 -115 67 -183 20 -68 49 -149 64 -180 35 -70 72
-162 107 -266 14 -44 52 -134 84 -200 31 -66 67 -151 80 -190 23 -70 55 -152
92 -234 30 -67 46 -114 79 -241 17 -63 44 -141 60 -173 37 -74 57 -221 36
-270 -39 -89 -103 -339 -111 -434 -8 -79 -18 -104 -84 -208 -64 -100 -130
-211 -162 -276 -43 -85 -139 -390 -155 -491 -5 -29 -19 -48 -68 -92 -34 -31
-65 -56 -68 -56 -4 0 -28 -29 -55 -65 -26 -36 -79 -91 -118 -122 -75 -60 -119
-100 -250 -223 -138 -130 -166 -160 -166 -173 0 -35 -93 -89 -550 -319 -267
-133 -512 -255 -545 -270 -435 -195 -889 -424 -1049 -527 -66 -43 -214 -126
-327 -184 -113 -58 -223 -115 -245 -128 -78 -44 -274 -149 -278 -149 -3 0 -27
-13 -53 -28 -51 -30 -188 -104 -366 -196 -59 -31 -117 -62 -130 -70 -12 -7
-47 -27 -77 -43 -30 -17 -84 -47 -120 -68 -58 -33 -265 -114 -345 -135 -16 -4
-48 -14 -70 -23 -82 -31 -366 -118 -545 -166 -102 -27 -259 -70 -350 -95 -437
-121 -645 -170 -900 -210 -131 -21 -216 -42 -345 -84 -42 -14 -135 -74 -159
-103 -32 -37 -33 -60 -5 -85 12 -10 28 -34 36 -52 11 -25 28 -40 71 -60 88
-41 180 -37 342 17 69 23 157 47 195 53 69 11 101 17 390 77 135 28 306 65
360 78 11 2 -6 -12 -38 -31 -32 -20 -60 -36 -62 -36 -7 0 -101 -61 -324 -209
-112 -75 -211 -140 -219 -146 -77 -50 -159 -106 -217 -150 -38 -29 -115 -76
-170 -104 -97 -52 -215 -128 -215 -140 0 -3 -11 -18 -24 -32 -13 -14 -28 -34
-34 -45 -16 -30 -8 -98 16 -131 11 -16 24 -41 27 -56 4 -14 13 -31 21 -38 8
-6 14 -17 14 -25 0 -25 40 -37 99 -30 69 8 192 67 280 133 64 48 78 59 187
143 85 66 215 149 350 226 66 36 133 76 149 88 78 57 471 293 615 369 85 45
130 69 420 229 243 133 401 215 445 228 22 7 103 36 180 65 202 76 631 218
750 248 58 15 397 138 441 160 27 14 68 29 90 33 21 3 95 26 164 51 69 24 184
64 255 89 72 25 146 53 165 61 34 16 208 81 345 130 59 20 167 64 320 128 34
14 386 154 485 192 75 29 251 103 328 139 29 13 55 24 58 24 9 0 293 115 394
160 198 88 577 248 624 264 27 9 97 37 156 60 58 24 135 53 170 64 78 24 285
102 355 132 28 13 82 37 120 55 39 18 97 36 130 40 120 14 312 56 415 89 74
24 131 36 195 40 50 3 131 12 180 21 128 23 208 24 231 4 22 -19 98 -46 164
-59 77 -15 157 -49 197 -85 21 -19 74 -49 118 -66 44 -18 96 -44 115 -59 19
-15 62 -41 95 -58 33 -17 69 -39 81 -50 11 -11 59 -45 105 -75 47 -30 90 -66
96 -80 7 -14 27 -37 46 -51 34 -26 132 -66 161 -66 8 0 16 -3 18 -8 2 -4 23
-23 48 -42 25 -18 66 -53 91 -76 26 -23 74 -56 108 -74 51 -25 110 -64 166
-108 6 -5 35 -21 65 -37 30 -16 81 -48 114 -70 32 -22 66 -44 74 -50 9 -5 24
-17 34 -26 11 -9 40 -27 66 -40 123 -63 196 -111 249 -163 70 -71 159 -135
244 -177 75 -38 227 -174 249 -224 32 -72 176 -220 286 -293 42 -28 101 -83
149 -137 44 -49 89 -98 100 -108 57 -50 174 -119 249 -148 79 -30 91 -39 196
-141 114 -113 160 -142 323 -203 31 -12 53 -28 62 -45 21 -41 176 -183 237
-217 29 -17 71 -36 93 -43 54 -17 62 -25 96 -92 16 -32 33 -58 37 -58 4 0 37
-22 74 -49 37 -26 97 -61 135 -76 117 -46 154 -65 157 -78 33 -116 69 -158
130 -155 38 3 41 1 51 -30 11 -33 59 -81 81 -82 6 0 23 -9 36 -20 16 -12 39
-19 60 -18 61 2 97 -21 129 -84 15 -31 50 -83 77 -115 51 -60 88 -79 197 -98
69 -12 112 -40 125 -82 21 -67 219 -453 252 -493 21 -25 45 -41 66 -45 25 -5
35 -14 47 -41 11 -26 26 -40 62 -56 26 -11 49 -22 51 -23 2 -2 25 -56 52 -122
27 -65 61 -143 77 -173 16 -30 35 -82 42 -115 23 -104 91 -305 147 -435 29
-69 67 -177 83 -240 41 -165 97 -343 135 -430 18 -41 38 -95 44 -120 6 -25 36
-144 67 -265 59 -239 131 -465 193 -615 46 -111 101 -223 113 -231 13 -8 112
-302 154 -454 37 -135 89 -293 111 -335 22 -43 58 -184 90 -353 9 -44 53 -196
100 -337 46 -141 84 -260 84 -264 0 -4 18 -45 40 -90 34 -72 49 -91 109 -140
47 -39 74 -68 80 -89 5 -18 26 -75 46 -127 88 -227 125 -350 140 -462 9 -62
22 -140 29 -173 34 -150 66 -297 80 -378 20 -110 59 -233 82 -258 13 -14 31
-19 70 -19 48 0 54 -3 58 -22 10 -48 17 -160 17 -262 0 -164 32 -183 136 -79
51 51 57 59 126 163 104 156 210 396 295 665 90 284 158 559 198 790 14 83 34
200 44 262 10 62 24 158 30 215 6 57 13 117 15 133 8 65 36 338 51 505 34 384
48 1094 31 1620 -8 248 -33 722 -42 795 -32 259 -39 399 -37 765 4 1004 1
1165 -27 1420 -4 41 -9 122 -10 180 -3 134 -19 217 -70 360 -22 63 -57 176
-77 250 -19 74 -40 149 -45 165 -9 28 -29 126 -65 325 -8 47 -19 105 -24 130
-29 144 -70 549 -71 710 -2 176 -14 365 -28 460 -22 143 -93 347 -187 537 -42
85 -190 240 -266 279 -37 19 -101 65 -106 77 -2 4 -10 7 -19 7 -8 0 -38 13
-66 28 -78 42 -196 78 -362 112 -82 16 -166 34 -185 39 -19 6 -127 33 -240 61
-113 28 -218 56 -235 61 -16 5 -95 25 -175 45 -80 19 -171 42 -202 50 -32 8
-84 20 -115 28 -32 8 -92 24 -133 35 -41 12 -95 26 -120 31 -25 6 -54 14 -65
20 -19 9 -128 39 -300 82 -91 22 -265 72 -310 87 -30 11 -335 106 -390 121
-16 5 -91 29 -165 53 -163 54 -368 119 -430 137 -25 8 -49 17 -55 20 -5 4 -21
10 -35 13 -34 7 -136 44 -185 66 -49 23 -181 73 -252 96 -28 9 -57 23 -63 31
-7 7 -16 14 -20 14 -4 0 -45 21 -91 47 -55 31 -113 76 -170 133 -89 87 -189
228 -189 266 0 40 270 270 352 298 56 21 164 107 187 150 8 14 29 32 47 41 18
9 37 21 41 28 9 14 96 73 158 106 22 12 54 30 70 39 17 10 51 24 78 32 26 7
68 26 93 41 25 16 77 38 116 49 47 13 98 38 152 74 108 72 158 96 236 113 36
8 92 21 125 29 33 8 148 32 255 54 205 42 493 106 620 139 41 11 109 24 150
31 41 6 111 18 155 27 44 8 125 18 180 20 101 5 135 -2 188 -39 23 -17 33 -1
42 64 9 66 -2 123 -33 159 -59 71 -234 110 -339 76 -26 -8 -93 -20 -148 -27
-55 -6 -137 -16 -182 -21 -45 -6 -87 -8 -92 -4 -6 3 -68 1 -138 -6 -98 -9
-180 -9 -367 0 -133 7 -254 14 -271 16 -16 2 -57 7 -90 10 -218 23 -367 60
-400 100 -17 20 -127 99 -180 129 -27 16 -59 37 -70 47 -28 25 -148 74 -225
92 -318 73 -511 92 -828 85 -216 -6 -365 3 -456 27 -123 32 -315 140 -406 228
-19 19 -62 56 -95 82 -33 27 -66 58 -74 69 -17 25 -155 160 -183 180 -18 13
-295 286 -384 378 -57 60 -189 212 -221 256 -15 20 -50 64 -78 97 -90 106
-253 329 -396 545 -76 115 -139 211 -139 214 0 2 -28 50 -63 107 -86 142 -217
396 -256 498 -62 161 -68 339 -21 576 11 55 25 125 31 155 26 130 153 564 235
805 52 153 146 388 238 595 26 58 60 137 76 175 46 114 209 450 269 555 17 30
45 82 62 115 18 33 79 135 138 227 182 288 188 300 201 457 10 110 -1 194 -34
266 -44 97 -212 274 -376 399 -129 97 -166 119 -380 228 -102 52 -210 111
-241 131 -31 20 -115 68 -185 108 -71 40 -174 102 -229 139 -55 37 -142 93
-194 125 -98 60 -277 191 -395 289 -116 95 -191 141 -455 278 -51 26 -103 55
-114 63 -12 8 -31 15 -43 15 -12 0 -27 6 -33 13 -12 16 -48 32 -171 78 -111
42 -386 154 -525 214 -60 26 -123 53 -140 60 -16 7 -50 22 -75 33 -25 11 -94
41 -153 66 -58 25 -288 136 -509 247 -222 111 -443 221 -493 244 -330 156
-445 209 -669 307 -138 60 -298 130 -356 155 -58 25 -118 51 -135 58 -16 8
-86 37 -155 65 -267 111 -420 173 -530 216 -63 25 -153 60 -200 79 -47 18
-173 65 -280 105 -107 40 -253 94 -325 120 -196 72 -446 160 -785 275 -168 56
-384 130 -480 164 -311 109 -639 203 -860 247 -87 17 -302 30 -312 19z"/>
</g>
</svg>
