<?xml version="1.0" standalone="no"?>
<!DOCTYPE svg PUBLIC "-//W3C//DTD SVG 20010904//EN"
 "http://www.w3.org/TR/2001/REC-SVG-20010904/DTD/svg10.dtd">
<svg version="1.0" xmlns="http://www.w3.org/2000/svg"
 width="606.000000pt" height="1151.000000pt" viewBox="0 0 606.000000 1151.000000"
 preserveAspectRatio="xMidYMid meet">
<metadata>
Created by potrace 1.16, written by Peter Selinger 2001-2019
</metadata>
<g transform="translate(0.000000,1151.000000) scale(0.100000,-0.100000)"
fill="#000000" stroke="none">
<path d="M4402 11500 c-37 -9 -94 -46 -110 -71 -6 -10 -16 -48 -22 -86 -6 -37
-13 -70 -16 -72 -2 -3 -26 18 -52 45 -74 79 -121 110 -175 118 -54 8 -135 -7
-179 -32 -37 -21 -58 -67 -48 -101 12 -38 64 -160 88 -208 39 -75 161 -163
227 -163 16 0 42 -5 59 -10 17 -6 71 -22 121 -36 49 -13 94 -29 100 -35 6 -6
12 -201 16 -533 4 -288 9 -528 12 -533 15 -24 4 -1856 -12 -2103 -30 -458 -23
-1294 13 -1530 38 -246 78 -770 58 -770 -33 0 -153 47 -188 73 -106 81 -204
248 -279 477 -53 163 -116 281 -185 349 -60 59 -110 81 -186 81 -97 0 -149
-30 -189 -109 -15 -30 -17 -54 -12 -175 7 -186 39 -334 108 -506 75 -188 154
-316 280 -451 116 -125 178 -176 300 -246 46 -27 130 -84 187 -126 57 -42 107
-77 112 -77 24 0 31 -59 40 -337 5 -164 13 -341 19 -393 6 -52 15 -172 21
-267 5 -94 18 -216 29 -270 28 -144 35 -221 19 -205 -19 19 -63 15 -147 -14
-78 -26 -128 -60 -149 -101 -18 -32 -14 -136 8 -240 22 -106 34 -133 100 -223
26 -36 71 -111 99 -167 28 -56 63 -113 77 -127 25 -22 28 -34 35 -123 4 -54 8
-177 9 -273 1 -373 41 -908 81 -1107 6 -29 11 -83 13 -120 2 -73 37 -215 67
-275 50 -98 133 -150 269 -169 74 -11 93 -10 142 5 70 20 160 98 203 178 29
51 30 59 36 223 3 94 2 305 -2 470 -13 439 -22 1115 -24 1820 -2 603 -9 801
-38 955 -8 46 -12 309 -14 890 -2 454 -4 850 -5 880 -2 63 32 201 85 341 19
52 40 128 46 169 6 41 18 109 26 150 8 41 22 162 30 269 8 106 18 198 22 203
3 6 12 166 19 357 7 190 18 385 25 432 24 178 -3 333 -64 374 -13 8 -67 23
-119 31 -88 14 -98 14 -148 -3 -61 -21 -86 -49 -100 -113 -7 -32 -8 17 -5 165
8 313 5 612 -6 712 -5 48 -14 144 -19 213 -6 69 -17 188 -26 265 -12 101 -18
268 -21 601 -4 450 3 630 27 659 5 6 45 15 87 18 163 14 256 41 437 128 211
102 295 156 346 223 55 73 93 161 98 227 4 54 2 59 -34 98 -48 54 -103 82
-173 88 -86 8 -133 -9 -166 -60 -59 -89 -265 -279 -240 -221 63 144 82 291 47
360 -33 64 -67 89 -117 87 -23 -1 -61 -11 -83 -22 -43 -22 -111 -93 -134 -142
l-15 -31 -7 25 c-17 69 -85 110 -246 147 -52 13 -124 31 -160 41 -133 38 -247
48 -328 29z m248 -106 c-6 -14 -10 -45 -10 -69 0 -24 -11 -90 -25 -147 -14
-56 -22 -111 -19 -120 3 -10 1 -18 -5 -18 -5 0 -12 -28 -14 -62 -3 -62 -3 -62
-5 15 -2 58 5 102 24 170 14 50 29 123 33 163 8 66 16 94 26 94 3 0 0 -12 -5
-26z m-111 -189 l-5 -200 -2 180 c-1 145 4 242 12 223 0 -2 -1 -93 -5 -203z
m-84 62 c1 -87 -1 -117 -6 -87 -13 78 -10 220 5 220 0 0 1 -60 1 -133z m-411
-133 c58 -58 85 -76 149 -103 44 -18 81 -30 83 -28 3 2 -19 20 -48 38 -134 86
-220 174 -274 281 -37 73 -28 71 12 -2 52 -94 97 -145 185 -210 120 -89 175
-116 268 -134 93 -17 124 -32 46 -21 -38 5 -46 4 -35 -5 24 -17 -54 -1 -129
26 -35 14 -66 23 -68 21 -7 -8 160 -78 209 -87 77 -15 78 -15 80 33 l1 42 4
-37 c2 -21 10 -38 16 -38 8 0 8 -3 -1 -9 -30 -19 -39 -158 -38 -581 1 -228 -2
-392 -5 -363 -10 81 -2 843 10 888 5 22 9 40 8 40 -1 1 -32 6 -68 12 -81 13
-330 127 -407 185 -68 52 -115 118 -141 195 -36 107 -24 115 26 18 34 -65 66
-109 117 -161z m11 139 c19 -23 72 -69 115 -102 80 -60 208 -137 215 -129 2 2
0 54 -4 116 -7 82 -5 127 4 165 7 28 13 45 14 37 0 -8 -3 -32 -8 -53 -7 -30 3
-266 12 -273 1 0 14 -4 30 -8 27 -6 27 -6 29 51 l2 58 3 -57 c4 -55 5 -58 31
-59 l27 -2 -27 -4 c-17 -3 -28 -11 -29 -21 -1 -13 -2 -14 -5 -2 -3 8 -31 23
-63 32 -70 21 -213 113 -300 194 -61 56 -122 136 -121 158 1 6 9 -5 20 -24 10
-19 35 -54 55 -77z m672 -35 c-4 -62 -14 -160 -22 -218 -8 -58 -19 -159 -25
-225 -6 -66 -14 -147 -19 -180 -5 -33 -7 -64 -5 -70 9 -30 26 -540 29 -898 1
-226 5 -468 8 -537 5 -107 4 -101 -7 40 -7 91 -13 336 -14 545 -2 353 -14 719
-28 825 -3 25 1 88 9 140 9 52 19 133 22 180 3 47 12 128 20 180 7 52 16 144
19 203 5 93 10 127 19 127 1 0 -2 -51 -6 -112z m615 22 c-31 -49 -84 -134
-117 -187 -41 -68 -93 -132 -166 -206 l-106 -109 -7 -211 c-3 -117 -9 -293
-12 -392 -4 -138 -3 -177 6 -165 10 13 11 12 6 -3 -27 -83 -51 -536 -36 -666
5 -46 12 -91 14 -100 12 -37 46 -310 46 -364 0 -32 4 -88 9 -125 6 -37 17
-134 26 -217 9 -82 29 -256 45 -385 28 -228 29 -249 29 -700 0 -357 4 -491 15
-575 8 -60 20 -195 26 -300 6 -104 15 -217 20 -250 19 -124 40 -326 50 -495
10 -181 26 -369 36 -430 3 -19 3 -32 -1 -28 -10 10 -31 224 -45 443 -11 187
-35 425 -50 505 -5 26 -14 134 -20 241 -7 107 -18 237 -26 289 l-13 95 4 -160
c2 -88 9 -194 14 -235 6 -41 15 -222 21 -402 6 -184 17 -362 25 -407 56 -321
62 -450 59 -1306 -2 -463 15 -1159 31 -1228 11 -49 23 -478 17 -567 -7 -80 -8
-63 -8 105 -1 170 -10 356 -39 755 -5 77 -21 959 -19 1085 8 537 5 745 -15
900 -12 88 -28 198 -36 245 -9 52 -19 213 -26 415 -5 182 -14 359 -20 395 -6
36 -14 202 -19 370 -5 168 -12 359 -15 425 -4 66 -7 199 -9 295 -2 152 -1 162
6 75 4 -55 11 -219 16 -365 l7 -265 2 415 c2 407 2 417 -22 515 -35 147 -92
497 -110 675 -8 85 -22 279 -30 430 -9 151 -20 325 -25 385 -10 107 -5 188 20
335 5 30 16 253 25 495 8 242 23 514 33 605 9 91 17 219 16 285 -1 95 1 112 8
80 11 -45 4 -217 -16 -380 -7 -60 -12 -111 -11 -113 2 -2 43 37 92 85 91 90
148 167 245 333 52 89 94 150 103 150 3 0 -21 -40 -53 -90z m47 -55 c-33 -82
-70 -152 -105 -198 -29 -40 -49 -75 -46 -78 4 -3 26 -11 49 -18 35 -9 53 -9
101 4 89 23 170 61 226 109 28 23 75 59 103 80 29 21 64 52 79 69 14 18 21 23
16 12 -13 -25 -76 -84 -122 -115 -19 -13 -51 -38 -70 -56 -42 -40 -163 -97
-241 -114 -47 -11 -64 -10 -109 3 -30 9 -57 14 -62 11 -34 -22 44 -42 166 -43
84 -1 93 1 160 35 110 57 155 95 236 198 41 52 79 95 84 96 5 0 2 -8 -6 -17
-8 -10 -43 -52 -76 -94 -79 -99 -113 -128 -215 -183 l-84 -46 -104 0 c-63 1
-120 6 -143 15 -36 13 -42 12 -66 -5 -55 -39 -54 -45 6 -64 71 -22 175 -23
251 -1 32 9 103 42 158 73 100 56 194 139 303 267 43 49 43 49 -5 -15 -107
-146 -289 -285 -433 -331 l-55 -18 47 0 c51 -1 215 53 277 91 20 13 74 54 121
94 65 54 93 85 118 132 32 59 52 78 52 48 0 -28 -38 -103 -71 -141 -34 -38
-169 -154 -224 -191 -41 -28 -128 -60 -200 -73 -33 -6 -94 -25 -135 -42 -67
-27 -92 -32 -228 -40 -85 -6 -161 -8 -170 -6 -9 2 42 7 113 11 162 8 216 18
307 54 40 16 104 35 142 41 105 18 180 63 328 194 63 56 129 154 128 188 -1 8
-14 -11 -30 -42 -30 -58 -101 -130 -202 -205 -82 -60 -222 -113 -333 -125 -49
-6 -139 -22 -199 -37 -105 -25 -110 -26 -154 -10 -40 15 -48 15 -66 2 -11 -8
-27 -14 -36 -14 -8 0 -2 7 15 16 27 14 122 101 230 211 68 69 119 154 171 286
27 68 50 121 52 116 2 -4 -20 -64 -49 -134z m-75 117 c-6 -4 -22 -27 -34 -52
-32 -64 -193 -300 -224 -329 -14 -14 -26 -29 -26 -35 0 -6 -14 -19 -31 -28
l-30 -18 21 27 c11 15 29 33 40 40 25 18 188 250 235 336 20 37 42 67 48 67 9
0 9 -2 1 -8z m-507 -94 c-2 -18 -4 -4 -4 32 0 36 2 50 4 33 2 -18 2 -48 0 -65z
m81 -270 c1 -242 -3 -377 -13 -458 -8 -63 -19 -151 -24 -195 -6 -44 -15 -123
-22 -175 -15 -126 -23 -675 -11 -770 l9 -75 2 60 c0 33 5 125 11 205 5 80 14
224 20 320 5 96 14 263 20 370 6 107 17 285 25 395 17 236 23 525 13 610 -6
52 -5 55 4 25 15 -48 12 -390 -6 -635 -8 -110 -20 -288 -25 -395 -6 -107 -16
-271 -21 -365 -5 -93 -14 -244 -20 -335 -15 -239 -13 -327 10 -432 12 -51 19
-103 17 -118 -3 -20 -4 -18 -6 10 -2 19 -7 46 -11 60 -12 37 -12 -148 0 -250
6 -47 15 -164 20 -260 18 -322 31 -494 50 -645 65 -505 106 -1023 115 -1450 3
-159 12 -353 20 -430 8 -77 19 -198 24 -270 6 -71 22 -197 36 -280 35 -199 40
-336 24 -665 -8 -151 -14 -399 -15 -550 -1 -151 -3 -421 -4 -600 -3 -303 -1
-339 24 -535 20 -148 26 -232 22 -285 -15 -200 -18 -254 -10 -247 4 4 11 29
15 55 7 44 8 43 4 -13 -4 -70 21 -858 35 -1120 5 -99 15 -209 21 -245 7 -39
12 -183 12 -365 1 -179 4 -276 9 -240 4 33 7 146 8 250 0 105 2 305 3 445 1
140 -4 343 -12 450 -15 228 -29 710 -19 710 3 0 8 -116 11 -258 3 -141 11
-340 18 -442 14 -195 17 -554 9 -985 -4 -232 -2 -264 13 -294 20 -40 21 -49 5
-33 -7 7 -18 32 -25 55 l-12 42 5 -55 c3 -30 10 -70 14 -89 6 -22 6 -31 0 -25
-26 26 -39 180 -40 459 0 190 -5 320 -14 392 -12 86 -28 332 -37 568 l-1 30
-8 -30 c-5 -20 -7 -4 -6 50 0 44 -3 208 -9 365 -11 338 -11 459 -1 560 6 59 2
120 -19 280 -26 193 -27 226 -26 560 2 642 6 872 19 1135 14 306 6 486 -31
720 -14 88 -30 221 -36 295 -6 74 -17 205 -25 290 -8 85 -15 263 -15 395 -1
132 -8 319 -16 415 -8 96 -17 213 -20 260 -11 151 -53 547 -80 750 -14 109
-28 294 -45 610 -6 102 -15 223 -20 270 -5 47 -10 134 -10 194 0 60 -8 156
-17 215 -15 86 -18 170 -18 446 0 351 7 463 48 730 18 117 22 185 22 420 1
323 4 485 8 485 2 0 4 -154 5 -342z m-97 63 c-12 -55 -21 -122 -21 -150 0 -27
-7 -85 -15 -128 -51 -260 -48 -960 6 -1588 5 -66 14 -181 20 -255 5 -74 18
-200 30 -279 11 -79 24 -205 29 -280 5 -75 14 -194 20 -266 5 -71 14 -283 20
-470 11 -338 27 -550 57 -760 16 -118 20 -299 15 -740 -3 -247 -2 -293 16
-390 21 -114 47 -354 39 -361 -3 -3 -10 48 -16 113 -6 65 -21 172 -32 238 -19
107 -21 150 -18 405 6 440 3 605 -14 730 -32 237 -48 446 -63 845 -17 477 -35
738 -63 920 -11 72 -25 202 -31 290 -6 88 -15 189 -20 225 -5 36 -10 106 -10
155 0 50 -5 135 -10 190 -35 350 -29 1033 10 1258 11 61 20 135 20 162 0 28 9
92 20 144 11 52 21 110 22 130 l1 36 4 -37 c2 -21 -5 -83 -16 -137z m-204
-173 c-2 -13 -4 -5 -4 17 -1 22 1 32 4 23 2 -10 2 -28 0 -40z m-10 -110 c-2
-18 -4 -6 -4 27 0 33 2 48 4 33 2 -15 2 -42 0 -60z m2 -322 c1 -66 -1 -117 -3
-115 -2 2 -5 94 -8 204 -3 124 -2 168 2 115 5 -47 8 -139 9 -204z m484 132
c-2 -51 -11 -132 -20 -179 -14 -76 -15 -135 -6 -550 6 -255 7 -493 2 -529 -4
-36 -4 -114 2 -175 17 -202 31 -489 26 -545 -2 -30 2 -118 9 -195 8 -77 13
-192 12 -255 -2 -92 -3 -99 -5 -35 -2 44 -10 156 -18 248 -8 92 -15 246 -15
342 0 95 -7 233 -15 307 -9 88 -13 220 -12 388 1 140 -2 410 -6 600 -6 252 -5
354 3 380 7 19 15 87 19 151 7 99 14 139 25 139 1 0 1 -42 -1 -92z m-476 -535
c-1 -54 -3 -12 -3 92 0 105 2 149 3 98 2 -51 2 -136 0 -190z m13 -1366 c-5
-384 -6 -305 -6 393 1 593 2 748 6 482 3 -216 3 -610 0 -875z m-83 1116 c-2
-27 -3 -5 -3 47 0 52 1 74 3 48 2 -27 2 -69 0 -95z m29 -228 c22 -212 27 -383
16 -535 -8 -115 -9 -106 -8 120 1 173 -4 290 -16 400 -17 147 -21 207 -13 185
2 -5 12 -82 21 -170z m173 -930 c6 -198 14 -439 16 -535 3 -96 10 -200 15
-230 5 -30 14 -93 19 -140 6 -47 22 -184 37 -305 19 -163 25 -258 24 -367 -4
-243 -3 -361 9 -833 13 -533 28 -799 62 -1086 9 -71 9 -129 1 -225 -19 -217
-17 -605 7 -1274 13 -395 14 -696 0 -895 -23 -348 -17 -556 36 -1155 8 -91 17
-216 20 -278 4 -62 13 -152 20 -200 8 -48 15 -119 15 -157 0 -39 6 -124 14
-190 8 -66 17 -150 21 -186 3 -37 14 -99 24 -138 10 -39 15 -71 11 -71 -21 0
-80 426 -80 579 0 36 -7 109 -15 161 -9 52 -20 175 -25 273 -5 98 -12 182 -14
186 -3 5 -10 84 -15 177 -6 93 -17 257 -26 364 -15 172 -15 227 -3 470 17 362
14 781 -10 1531 -9 290 -1 826 14 891 3 15 -1 87 -9 160 -9 73 -21 207 -26
298 -6 91 -16 230 -22 310 -6 80 -12 290 -14 465 -2 176 -8 406 -14 510 -14
252 -14 328 0 320 6 -5 9 -27 5 -59 -5 -45 -4 -47 4 -16 6 19 7 76 4 125 -10
164 -81 762 -92 779 -3 5 -9 154 -13 330 -4 177 -10 427 -13 556 -3 129 -4
231 -2 225 3 -5 9 -172 15 -370z m-178 128 c-15 -145 -14 -271 3 -389 14 -96
28 -776 16 -788 -3 -2 -7 151 -8 342 -2 236 -8 379 -18 446 -7 55 -14 138 -14
185 0 95 22 356 28 328 2 -9 -1 -65 -7 -124z m66 -655 c-2 -18 -4 -6 -4 27 0
33 2 48 4 33 2 -15 2 -42 0 -60z m10 -115 c-2 -16 -4 -5 -4 22 0 28 2 40 4 28
2 -13 2 -35 0 -50z m616 -105 c-3 -46 -15 -130 -28 -188 -13 -58 -26 -150 -29
-205 -6 -94 -46 -282 -67 -315 -8 -12 -9 -11 -5 5 44 175 55 236 61 320 4 55
17 146 31 201 13 56 24 128 24 160 0 53 8 104 15 104 2 0 1 -37 -2 -82z m140
-118 c-7 -85 -19 -204 -27 -265 -8 -60 -18 -144 -21 -185 -3 -41 -13 -109 -20
-150 -8 -41 -19 -122 -24 -180 -6 -58 -21 -143 -34 -190 -14 -47 -28 -100 -32
-118 -4 -19 -20 -61 -36 -95 -16 -35 -26 -49 -23 -32 4 17 15 46 25 65 10 19
24 62 32 95 8 33 24 98 35 145 11 47 25 130 30 185 6 55 17 150 25 210 41 298
67 550 69 670 1 36 3 43 8 25 3 -14 1 -95 -7 -180z m-746 13 c-2 -32 -3 -6 -3
57 0 63 1 89 3 58 2 -32 2 -84 0 -115z m661 -163 c-33 -300 -77 -592 -98 -660
-39 -119 -52 -150 -62 -150 -7 0 -7 4 0 13 54 67 144 612 160 972 6 127 7 134
13 70 3 -44 -2 -136 -13 -245z m133 178 c-6 -28 -14 -105 -17 -172 -3 -66 -9
-146 -14 -176 -5 -30 -14 -107 -20 -170 -6 -63 -17 -140 -25 -171 -8 -31 -20
-102 -26 -159 -6 -57 -20 -127 -30 -157 -10 -30 -30 -111 -44 -181 -15 -70
-31 -131 -37 -137 -8 -7 -9 -4 -4 10 4 11 16 65 27 120 11 55 30 134 43 175
13 41 29 122 35 180 6 58 18 130 26 160 8 30 20 109 26 175 5 66 14 138 19
160 5 22 10 83 10 135 0 101 33 350 38 292 2 -18 -2 -56 -7 -84z m76 60 c-3
-8 -6 -5 -6 6 -1 11 2 17 5 13 3 -3 4 -12 1 -19z m-12 -95 c-4 -43 -13 -121
-21 -173 -29 -197 -54 -426 -54 -500 0 -41 -4 -111 -10 -155 -5 -44 -14 -127
-20 -185 -5 -58 -19 -172 -29 -253 -19 -138 -24 -156 -70 -253 -27 -57 -52
-104 -56 -104 -6 0 6 29 59 142 33 69 38 95 61 275 39 318 55 475 55 549 0 67
24 286 54 496 8 57 17 133 21 171 4 37 9 67 12 67 2 0 2 -35 -2 -77z m-826
-383 c6 -87 7 -180 1 -260 -23 -306 -7 -740 34 -935 29 -141 37 -269 42 -695
3 -287 10 -471 19 -540 7 -58 18 -166 24 -240 13 -158 34 -1219 25 -1270 -3
-19 -1 -120 6 -225 6 -104 15 -282 20 -395 5 -113 14 -268 21 -345 8 -99 10
-273 5 -600 -6 -450 2 -734 25 -915 18 -140 77 -481 93 -532 8 -27 11 -46 6
-43 -14 9 -39 121 -74 335 -59 358 -60 382 -58 995 2 308 0 619 -3 691 l-7
130 -27 11 c-34 12 -143 138 -218 250 -54 81 -188 337 -171 327 5 -3 34 -56
64 -117 31 -62 85 -156 122 -210 65 -98 195 -247 214 -247 7 0 8 38 3 118 -4
64 -9 160 -10 212 -2 52 -9 197 -15 323 -7 125 -9 235 -6 244 9 23 -12 1093
-25 1253 -6 74 -17 182 -24 240 -9 69 -16 257 -19 545 -5 448 -11 543 -45 720
-36 186 -42 316 -44 925 -1 327 1 548 5 490 3 -58 11 -166 17 -240z m-80 -639
c0 -211 -1 -382 -3 -380 -2 2 -5 274 -8 604 -2 330 -1 501 3 380 3 -121 7
-393 8 -604z m-12 -548 c-2 -32 -3 -8 -3 52 0 61 1 87 3 58 2 -29 2 -78 0
-110z m-809 48 c4 -57 111 -334 159 -414 74 -123 259 -363 348 -453 98 -99
189 -148 305 -163 41 -6 75 -9 76 -8 1 1 -2 38 -6 82 -5 44 -9 103 -8 130 0
28 6 -8 13 -80 8 -71 13 -159 12 -195 l-1 -65 -3 57 -4 57 -47 6 c-155 19
-233 60 -353 182 -118 120 -313 382 -372 499 -62 123 -158 418 -130 401 5 -3
10 -19 11 -36z m-19 -117 c65 -188 100 -260 221 -459 56 -93 124 -206 151
-250 64 -107 125 -174 207 -228 93 -61 231 -112 304 -112 32 0 58 -3 58 -7 0
-5 -4 -8 -10 -8 -11 0 -14 -152 -4 -163 4 -3 5 -91 3 -194 -8 -399 -3 -667 18
-998 23 -351 34 -682 21 -662 -4 7 -8 82 -8 167 0 159 -22 593 -40 780 -12
128 -14 385 -4 621 l7 176 -24 6 c-13 4 -34 7 -47 7 -24 0 -24 -9 -1 -87 6
-17 9 -46 7 -65 -1 -18 1 -85 5 -148 9 -133 29 -735 32 -955 1 -93 8 -182 18
-234 9 -46 16 -118 16 -160 l-2 -76 -7 100 c-4 55 -15 139 -24 186 -11 55 -16
128 -15 205 3 160 -18 817 -31 979 -6 72 -16 160 -22 198 -10 59 -14 67 -33
67 -41 0 -90 24 -195 94 -312 209 -505 387 -579 533 -50 101 -166 411 -185
495 -14 63 -32 307 -22 297 3 -3 10 -68 15 -145 11 -152 25 -204 120 -453 81
-210 111 -260 231 -382 108 -110 214 -193 428 -336 127 -85 156 -96 262 -97
45 -1 45 -1 48 35 l3 36 -87 7 c-407 33 -851 531 -944 1061 -11 61 -26 147
-35 190 -8 44 -15 86 -15 94 0 40 12 -13 45 -191 50 -281 114 -449 241 -640
120 -180 290 -337 459 -424 101 -52 161 -71 253 -78 l72 -6 0 45 0 45 -40 0
c-41 0 -196 53 -280 95 -118 60 -284 227 -396 402 -70 108 -196 360 -251 502
-52 134 -85 251 -72 251 5 0 9 -8 9 -17 0 -44 101 -306 180 -468 153 -314 297
-502 484 -630 61 -42 248 -114 317 -122 l49 -6 0 32 c0 29 -2 31 -36 31 -40 0
-164 40 -239 78 -72 36 -163 112 -213 179 -52 69 -279 447 -332 553 -41 83
-115 275 -136 352 -21 82 -6 49 45 -98z m856 -189 c20 -149 42 -476 31 -464
-2 2 -9 85 -15 184 -7 99 -18 224 -26 277 -8 54 -14 119 -13 145 1 46 1 46 5
8 1 -22 10 -89 18 -150z m455 -850 c0 -33 7 -103 16 -155 13 -79 15 -145 9
-400 -4 -168 -11 -328 -15 -356 -5 -28 -11 -197 -15 -375 -3 -178 -10 -378
-16 -444 -7 -96 -6 -135 6 -198 19 -101 24 -435 10 -694 -7 -121 -3 -175 20
-328 4 -25 3 -27 -5 -10 -7 14 -9 -1 -5 -55 3 -41 10 -142 15 -225 5 -82 17
-217 25 -300 9 -82 20 -229 25 -325 5 -96 12 -191 15 -210 3 -19 9 -118 15
-220 14 -247 33 -375 53 -364 8 5 8 3 0 -6 -7 -8 -15 -11 -18 -8 -21 21 -49
319 -75 798 -5 85 -15 221 -24 303 -19 182 -31 335 -51 677 -11 206 -12 282
-4 340 19 122 14 488 -7 615 -13 75 -13 120 -4 270 5 99 15 315 20 480 5 165
15 439 22 608 10 276 9 320 -6 420 -9 62 -16 135 -16 162 0 28 -7 91 -15 140
-8 50 -14 104 -14 120 2 51 38 -196 39 -260z m-516 -1909 c-13 -34 134 -242
210 -298 21 -15 35 -28 29 -28 -39 0 -175 154 -227 257 -27 55 -33 83 -16 83
5 0 7 -6 4 -14z m-40 -100 c42 -71 140 -199 210 -274 36 -38 66 -73 66 -77 0
-36 -245 266 -294 363 -24 47 -12 39 18 -12z m-49 -116 c57 -163 139 -327 195
-395 43 -51 135 -124 158 -125 6 0 12 -5 12 -11 0 -23 -106 49 -162 111 -43
47 -76 98 -118 185 -62 126 -163 405 -136 374 2 -2 25 -65 51 -139z m-40 -3
c44 -134 136 -331 195 -416 48 -70 147 -173 191 -200 19 -12 30 -21 26 -21
-15 0 -52 22 -79 48 -16 14 -28 22 -28 18 0 -39 -129 153 -208 309 -57 114
-159 385 -144 385 4 -1 25 -56 47 -123z m-19 -92 c33 -106 102 -248 150 -311
22 -28 66 -87 98 -130 33 -44 87 -106 120 -138 34 -33 48 -50 31 -38 -37 25
-102 94 -141 147 -16 22 -52 69 -80 105 -66 83 -107 153 -149 255 -35 85 -96
282 -94 306 0 8 10 -15 20 -51 11 -36 31 -101 45 -145z m355 -791 c5 -86 11
-160 14 -164 3 -5 10 -125 15 -267 15 -365 27 -565 40 -663 19 -140 70 -441
85 -500 8 -30 12 -56 10 -58 -8 -9 -36 111 -65 283 -53 320 -56 354 -80 923
-5 140 -12 258 -15 262 -3 4 -9 79 -15 166 -5 88 -12 170 -16 184 -5 22 -4 23
6 7 6 -10 16 -88 21 -173z"/>
<path d="M3915 11270 c20 -71 116 -181 189 -216 31 -14 31 -14 6 3 -45 31
-121 113 -161 176 -22 34 -37 51 -34 37z"/>
<path d="M4170 11020 c8 -5 20 -10 25 -10 6 0 3 5 -5 10 -8 5 -19 10 -25 10
-5 0 -3 -5 5 -10z"/>
<path d="M4388 10963 c7 -3 16 -2 19 1 4 3 -2 6 -13 5 -11 0 -14 -3 -6 -6z"/>
<path d="M4897 9708 c-4 -29 -6 -82 -5 -118 1 -49 3 -38 9 50 9 120 6 157 -4
68z"/>
<path d="M4914 9120 c21 -339 29 -439 41 -550 23 -194 95 -601 95 -534 0 5 -9
79 -20 164 -31 242 -61 524 -70 650 -9 122 -38 352 -47 360 -2 3 -2 -38 1 -90z"/>
<path d="M5071 10784 c-27 -35 -26 -42 6 -55 29 -11 108 0 196 26 l42 12 -59
7 c-32 4 -76 14 -98 22 -55 19 -63 18 -87 -12z"/>
<path d="M5333 10773 c9 -2 23 -2 30 0 6 3 -1 5 -18 5 -16 0 -22 -2 -12 -5z"/>
<path d="M5172 2420 c0 -14 2 -19 5 -12 2 6 2 18 0 25 -3 6 -5 1 -5 -13z"/>
<path d="M5183 2055 c0 -38 2 -53 4 -32 2 20 2 52 0 70 -2 17 -4 1 -4 -38z"/>
<path d="M4643 7100 c0 -25 2 -35 4 -22 2 12 2 32 0 45 -2 12 -4 2 -4 -23z"/>
<path d="M4660 2416 c0 -2 8 -10 18 -17 15 -13 16 -12 3 4 -13 16 -21 21 -21
13z"/>
<path d="M1217 9921 c-37 -10 -80 -26 -94 -37 -58 -44 -64 -61 -78 -232 -19
-218 -4 -776 24 -972 17 -115 20 -123 16 -55 -19 330 -16 1234 4 1194 4 -8 4
-122 0 -254 -13 -373 2 -900 31 -1095 5 -36 14 -117 20 -180 5 -63 17 -160 25
-215 20 -132 34 -721 22 -943 -7 -127 -6 -236 7 -457 13 -220 16 -447 15 -945
0 -527 2 -680 15 -785 30 -260 38 -454 35 -872 -1 -230 -3 -467 -3 -528 0
-162 13 -405 30 -523 8 -56 14 -124 14 -150 0 -26 9 -97 19 -157 11 -61 25
-159 31 -219 6 -61 14 -114 17 -120 4 -5 10 -107 15 -225 17 -477 41 -852 55
-874 3 -5 9 -98 14 -206 8 -200 37 -448 65 -556 9 -37 18 -137 23 -260 6 -124
13 -210 21 -227 12 -25 16 -27 54 -21 23 3 42 6 43 7 14 10 10 191 -21 986
-25 639 -36 867 -51 1030 -8 85 -17 200 -20 255 -3 55 -12 140 -20 190 -8 49
-21 178 -29 285 -26 321 -46 537 -61 675 -37 323 -40 474 -32 1775 2 260 -10
607 -35 1000 -6 96 -12 479 -14 850 -2 371 -8 716 -14 767 -5 51 -10 118 -10
150 0 32 -16 168 -36 303 -34 237 -52 419 -74 735 -6 83 -15 191 -20 242 -6
51 -10 139 -10 195 0 57 -7 150 -15 208 -22 150 -27 219 -17 195 18 -40 44
-255 52 -430 8 -163 14 -254 50 -705 6 -74 26 -247 46 -385 51 -362 57 -477
60 -1110 1 -313 7 -682 13 -820 6 -137 15 -356 21 -485 5 -129 15 -311 21
-405 8 -117 9 -254 3 -440 -12 -368 -13 -1053 -2 -1260 5 -93 17 -249 28 -345
20 -186 40 -401 66 -725 8 -110 22 -240 29 -290 7 -49 16 -135 20 -190 3 -55
12 -167 20 -250 23 -240 35 -544 71 -1753 l6 -214 25 44 c13 23 31 50 38 58
16 18 39 108 56 215 11 72 9 96 -11 225 -44 286 -48 341 -39 595 4 132 13 276
19 320 15 98 6 381 -16 499 -8 44 -19 118 -24 164 -6 45 -15 121 -22 170 -6
48 -14 251 -18 452 -7 334 -21 545 -49 735 -28 184 -50 587 -56 995 -3 179
-10 386 -16 460 -7 79 -10 277 -8 475 5 556 3 833 -9 950 -63 611 -73 748 -92
1270 -14 375 -38 769 -55 900 -29 225 -47 343 -66 451 -20 114 -33 269 -45
554 -3 91 -12 196 -20 235 -12 66 -11 86 2 72 14 -14 35 -214 48 -477 10 -181
22 -325 35 -395 66 -362 86 -585 116 -1300 20 -487 40 -779 70 -1060 42 -387
50 -575 38 -895 -8 -217 -7 -411 3 -810 23 -899 30 -1027 74 -1450 42 -394 48
-493 49 -740 1 -264 14 -428 54 -680 25 -161 36 -535 18 -640 -6 -36 -12 -184
-13 -330 -3 -261 -2 -268 31 -455 36 -209 36 -259 2 -412 -15 -65 -26 -91 -55
-124 -20 -24 -36 -48 -36 -55 0 -7 -9 -22 -20 -32 l-21 -19 27 5 c30 6 73 48
108 107 47 77 52 157 35 563 -17 443 -16 708 5 1029 13 193 14 277 6 410 -6
93 -13 182 -15 198 -3 17 -8 181 -11 365 -8 528 -30 1058 -53 1240 -6 47 -15
180 -21 295 -11 225 -34 585 -50 780 -6 66 -10 163 -10 215 0 52 -5 133 -10
180 -14 122 -22 826 -11 945 12 118 -2 415 -25 550 -9 50 -20 144 -24 210 -5
66 -16 164 -25 218 -11 70 -17 185 -19 410 -4 331 -19 626 -36 692 -6 22 -15
90 -20 150 -6 61 -17 146 -25 190 -7 44 -17 123 -20 175 -4 52 -15 133 -25
180 -11 47 -24 132 -29 190 -6 58 -20 152 -30 210 -11 58 -26 152 -35 209 -10
64 -24 118 -38 140 l-21 36 23 -21 c23 -23 60 -150 60 -211 0 -18 9 -78 20
-135 11 -56 25 -150 30 -208 6 -58 20 -145 31 -195 11 -49 24 -144 29 -210 6
-66 17 -156 25 -200 8 -44 14 -101 15 -127 0 -25 9 -91 19 -145 26 -131 42
-393 47 -763 2 -208 8 -335 19 -400 8 -52 19 -149 24 -215 6 -66 17 -156 25
-200 17 -95 23 -362 17 -890 -2 -213 1 -438 8 -530 16 -234 31 -469 42 -645
43 -723 48 -808 59 -893 5 -45 14 -163 20 -261 6 -98 13 -182 15 -186 2 -4 7
-186 10 -406 10 -684 11 -716 20 -849 4 -71 12 -133 17 -136 9 -6 4 -115 -22
-464 -9 -124 -12 -294 -3 -200 2 22 10 74 18 115 41 213 53 412 54 895 1 421
15 913 27 940 2 6 2 -71 -2 -170 -3 -99 -7 -427 -10 -729 -4 -570 -14 -732
-61 -976 -14 -73 -16 -169 -15 -655 1 -670 0 -680 -80 -771 -31 -36 -32 -37
-8 -29 43 13 85 43 133 94 62 66 65 80 88 341 11 132 11 140 -21 345 l-33 210
19 130 c14 97 18 174 16 300 -2 94 2 204 7 245 36 254 45 384 43 625 -1 188 2
275 14 349 17 103 16 151 -6 349 -10 84 -10 139 -1 245 16 182 22 194 131 250
163 84 385 265 493 402 128 163 202 455 232 915 7 112 -19 559 -36 603 -30 80
-137 130 -227 106 -22 -6 -22 -7 -16 -158 3 -83 12 -209 20 -281 16 -147 17
-311 5 -530 -8 -137 -13 -161 -51 -274 -47 -143 -83 -218 -134 -281 -20 -25
-62 -79 -93 -120 -102 -134 -180 -216 -257 -267 -80 -55 -224 -110 -254 -98
-12 5 2 11 43 20 162 35 286 131 451 348 32 43 80 106 106 140 53 69 118 221
148 346 26 107 44 465 31 596 -6 55 -15 183 -21 285 -6 102 -14 202 -18 223
l-7 38 -43 -28 -42 -28 7 -75 c15 -146 9 -437 -11 -550 -15 -79 -20 -161 -22
-330 -2 -286 -13 -337 -106 -490 -58 -95 -133 -192 -205 -262 -66 -65 -210
-122 -250 -99 -16 9 -14 10 10 11 15 0 63 14 107 31 73 28 86 38 167 123 99
105 202 266 235 367 18 55 22 101 28 329 5 176 13 294 24 350 18 89 23 447 8
537 l-7 43 -23 -34 c-53 -77 -73 -238 -71 -544 2 -167 -2 -259 -14 -347 -9
-66 -24 -178 -33 -250 -29 -228 -63 -303 -190 -417 -111 -100 -167 -130 -251
-132 -36 0 -67 3 -69 9 -2 6 22 11 58 12 62 2 133 30 188 73 l25 19 -36 -5
-36 -6 -7 147 c-4 81 -13 193 -21 248 -7 56 -18 188 -25 292 -22 370 -31 465
-56 597 -21 109 -27 181 -34 396 -5 144 -12 266 -14 271 -3 5 -8 100 -11 211
-4 151 -11 228 -26 299 -39 182 -48 246 -49 333 0 48 -7 138 -15 200 -32 249
-34 289 -24 421 7 101 6 165 -5 281 -8 83 -17 234 -20 336 -3 115 -15 252 -30
360 -14 96 -30 258 -36 360 -6 102 -12 192 -15 200 -4 16 -36 352 -55 580 -21
248 -55 426 -101 516 -28 55 -131 69 -262 35z m533 -3926 c6 -170 14 -362 20
-425 13 -164 30 -640 30 -837 0 -279 75 -963 101 -921 7 10 9 9 9 -4 0 -20
-16 -32 -25 -19 -12 21 -55 326 -75 541 -11 125 -20 299 -20 390 0 168 -13
511 -31 810 -10 167 -25 525 -32 790 -3 115 -3 128 4 65 4 -44 13 -219 19
-390z m956 -666 c8 -90 16 -285 17 -434 2 -243 0 -283 -21 -400 -13 -71 -36
-166 -52 -210 -16 -44 -48 -134 -70 -200 -23 -66 -57 -143 -76 -171 -63 -93
-407 -411 -502 -463 -37 -20 -88 -50 -114 -65 -27 -15 -48 -23 -48 -17 0 13
85 69 154 102 83 38 467 404 508 483 11 22 49 121 84 220 75 211 110 381 120
581 5 116 -6 455 -23 670 -3 44 -3 77 1 74 4 -4 14 -80 22 -170z"/>
<path d="M1013 9225 c0 -27 2 -38 4 -22 2 15 2 37 0 50 -2 12 -4 0 -4 -28z"/>
<path d="M1092 8495 c0 -16 2 -22 5 -12 2 9 2 23 0 30 -3 6 -5 -1 -5 -18z"/>
<path d="M1102 8420 c0 -14 2 -19 5 -12 2 6 2 18 0 25 -3 6 -5 1 -5 -13z"/>
<path d="M1113 8340 c0 -25 2 -35 4 -22 2 12 2 32 0 45 -2 12 -4 2 -4 -23z"/>
<path d="M1122 8230 c0 -19 2 -27 5 -17 2 9 2 25 0 35 -3 9 -5 1 -5 -18z"/>
<path d="M1131 8144 c0 -11 3 -14 6 -6 3 7 2 16 -1 19 -3 4 -6 -2 -5 -13z"/>
<path d="M1148 8000 c2 -58 6 -107 8 -109 7 -8 3 135 -5 174 -5 25 -7 2 -3
-65z"/>
<path d="M1172 7265 c0 -16 2 -22 5 -12 2 9 2 23 0 30 -3 6 -5 -1 -5 -18z"/>
<path d="M1163 7140 c0 -30 2 -43 4 -27 2 15 2 39 0 55 -2 15 -4 2 -4 -28z"/>
<path d="M1151 6910 c0 -90 -8 -221 -17 -289 -15 -117 -15 -139 1 -311 11
-127 15 -256 13 -406 -4 -328 9 -1040 21 -1114 16 -98 13 -219 -9 -375 -22
-153 -21 -179 17 -330 27 -108 28 -203 3 -260 -9 -21 -12 -70 -11 -155 2 -69
4 -127 6 -130 5 -9 15 -335 20 -690 3 -190 10 -385 15 -435 5 -49 10 -119 10
-155 0 -36 7 -110 15 -165 9 -55 20 -152 26 -217 5 -64 18 -165 29 -225 27
-146 37 -323 50 -878 10 -453 25 -658 51 -707 16 -29 55 -49 111 -57 l54 -7
-20 39 c-16 33 -20 65 -22 211 -2 127 -8 195 -23 266 -30 135 -61 421 -61 559
0 65 -4 142 -10 171 -19 98 -38 393 -59 885 -8 193 -17 279 -60 580 -40 280
-66 608 -65 825 0 58 2 297 3 531 3 425 -5 619 -35 876 -8 73 -15 168 -13 210
6 257 -2 1316 -11 1463 -6 96 -15 238 -19 315 l-8 140 -2 -165z"/>
<path d="M178 6553 c-24 -7 -54 -22 -67 -33 -21 -18 -22 -23 -11 -52 6 -18 15
-98 20 -178 5 -80 14 -197 19 -260 6 -63 15 -176 21 -250 34 -443 52 -621 80
-783 11 -66 20 -131 20 -145 0 -15 12 -76 26 -137 14 -60 32 -157 40 -215 7
-58 20 -132 28 -165 8 -33 24 -120 35 -192 33 -211 55 -288 154 -530 71 -173
124 -260 211 -345 136 -134 222 -173 350 -161 l66 6 0 53 c0 51 -1 54 -25 54
-37 0 -213 68 -271 106 -78 49 -100 77 -174 229 -141 286 -326 910 -359 1210
-7 55 -18 145 -26 200 -7 55 -16 138 -20 185 -3 47 -12 141 -20 210 -39 325
-48 417 -56 580 -4 96 -13 249 -18 340 -6 91 -10 183 -10 205 0 37 1 38 10 15
6 -14 15 -99 20 -190 4 -91 13 -205 18 -255 5 -49 7 -113 4 -140 -3 -28 2
-111 11 -185 8 -74 18 -166 21 -205 3 -38 12 -128 20 -200 8 -71 19 -182 25
-245 41 -447 88 -665 243 -1131 147 -439 216 -563 357 -634 61 -31 211 -85
236 -85 16 0 17 12 11 136 l-5 137 -66 66 c-133 134 -241 285 -299 417 -56
128 -128 345 -153 459 -14 66 -34 156 -45 200 -28 107 -56 272 -74 430 -8 72
-18 137 -21 145 -10 26 -33 400 -34 536 0 162 -32 477 -61 604 -31 136 -33
150 -21 150 10 0 36 -101 61 -230 17 -92 41 -393 41 -528 0 -160 17 -450 30
-522 6 -31 17 -109 25 -175 18 -145 47 -318 69 -400 8 -33 28 -123 44 -200 32
-154 118 -400 185 -529 44 -85 94 -157 195 -278 67 -82 132 -138 119 -104 -4
10 -7 69 -7 132 l0 114 -38 19 c-118 60 -178 140 -206 276 -8 39 -31 129 -51
200 -20 72 -51 204 -69 295 -19 91 -51 228 -71 305 -28 108 -44 208 -70 440
-33 285 -39 351 -65 714 -15 216 -80 467 -130 502 -33 23 -210 31 -272 12z
m143 -256 c10 -124 25 -264 33 -313 8 -49 18 -132 21 -184 4 -52 16 -153 26
-225 10 -71 19 -149 19 -172 0 -23 9 -88 19 -145 11 -57 22 -137 25 -178 10
-114 110 -680 137 -772 5 -18 20 -81 34 -141 30 -131 140 -395 199 -476 23
-31 72 -99 108 -152 68 -97 127 -159 153 -159 7 0 17 -4 20 -10 3 -5 -3 -10
-15 -10 -45 0 -111 79 -301 355 -34 51 -144 307 -164 383 -73 282 -176 823
-190 992 -3 41 -15 121 -25 178 -11 57 -20 124 -20 150 0 26 -7 88 -15 137 -8
50 -20 149 -25 220 -5 72 -17 173 -25 225 -8 52 -22 188 -30 302 -17 239 -17
233 -8 225 3 -4 14 -107 24 -230z"/>
<path d="M50 6460 c-40 -57 -48 -103 -33 -194 7 -45 18 -184 24 -311 9 -197
15 -254 45 -400 22 -109 38 -222 44 -315 5 -80 16 -172 24 -205 29 -118 46
-245 47 -332 0 -164 21 -268 145 -718 24 -89 128 -364 167 -440 48 -97 172
-260 286 -378 78 -81 93 -89 189 -111 66 -15 77 -15 104 -2 22 11 29 12 25 3
-3 -7 1 -21 9 -32 10 -14 14 -53 14 -145 0 -74 8 -182 19 -256 15 -104 44
-511 44 -624 0 -14 -6 -82 -13 -153 -16 -147 -8 -255 37 -472 23 -112 27 -157
28 -325 1 -166 5 -210 25 -295 21 -90 24 -121 22 -301 -2 -191 -1 -203 22
-268 40 -109 42 -106 22 32 -9 62 -19 272 -26 582 -12 553 -22 722 -49 870
-11 58 -22 143 -26 190 -3 47 -13 130 -21 185 -28 195 -59 794 -48 950 l6 100
-108 0 c-99 0 -114 3 -159 27 -139 73 -301 262 -361 422 -15 39 -45 114 -67
166 -47 112 -89 275 -112 426 -9 60 -24 147 -35 194 -10 47 -23 125 -30 174
-6 49 -22 135 -35 190 -13 56 -31 151 -39 211 -8 61 -21 155 -30 210 -19 124
-43 358 -51 490 -3 55 -10 147 -15 205 -21 231 -32 371 -39 506 -5 77 -13 149
-18 158 -9 16 -12 15 -33 -14z"/>
<path d="M2381 5274 c0 -11 3 -14 6 -6 3 7 2 16 -1 19 -3 4 -6 -2 -5 -13z"/>
<path d="M2372 5215 c0 -16 2 -22 5 -12 2 9 2 23 0 30 -3 6 -5 -1 -5 -18z"/>
<path d="M2362 5110 c0 -14 2 -19 5 -12 2 6 2 18 0 25 -3 6 -5 1 -5 -13z"/>
<path d="M1831 1207 c-1 -76 3 -116 9 -112 12 7 12 182 0 210 -5 13 -9 -23 -9
-98z"/>
</g>
</svg>
