<?xml version="1.0" encoding="UTF-8" standalone="no"?>
<!-- Created with Inkscape (http://www.inkscape.org/) -->

<svg
   version="1.1"
   width="37.516705mm"
   height="32.683598mm"
   viewBox="0 0 1720.8397 1499.0227"
   id="svg2"
   xml:space="preserve"
   style="fill-rule:evenodd"
   xmlns="http://www.w3.org/2000/svg"
   xmlns:svg="http://www.w3.org/2000/svg">
 <defs
   id="defs4">
  <style
   type="text/css"
   id="style6" />
 </defs>
 <g
   id="Layer_x0020_1"
   transform="translate(-0.16032555,0.08733741)">
  
  <path
   d="m 287,1458 z m 0,0 c -12,-5 -2,2 -19,6 -13,-20 -3,-60 18,-80 32,-30 22,-79 38,-117 9,-22 8,-50 14,-76 3,-11 3,-25 7,-38 2,-7 3,-8 5,-17 15,-69 20,-115 88,-154 11,-6 20,-15 32,-16 0,-28 -6,-77 6,-101 17,-34 28,-35 51,-59 -12,-22 -20,-19 -46,-27 -23,-6 -52,-28 -65,-46 -17,-22 -30,-47 -37,-76 -6,-22 -46,-102 -60,-122 L 287,491 C 253,437 224,381 197,323 174,277 173,271 143,228 127,206 112,185 90,168 63,147 35,127 14,96 7,87 2,84 1,72 -3,45 8,28 19,14 36,-8 63,0 85,9 c 2,1 6,2 7,3 39,16 79,-3 133,25 33,17 33,68 49,98 l 24,49 c 19,31 38,63 52,96 5,9 9,15 13,25 8,17 17,32 27,49 6,9 8,12 14,20 16,22 35,41 57,56 9,6 13,10 23,15 l 12,7 c 16,8 34,2 51,6 22,6 9,3 30,1 8,-92 38,-66 161,-66 26,0 28,-5 47,-9 22,-6 84,16 158,15 42,0 102,18 128,45 5,6 8,10 13,16 21,28 45,61 83,65 8,1 18,0 27,1 8,1 16,2 27,4 69,7 98,48 158,69 66,23 51,37 94,83 19,21 40,40 56,64 7,11 12,24 21,36 8,11 20,18 28,31 22,37 46,75 60,116 4,11 14,31 20,41 11,18 33,23 52,36 9,7 10,5 11,20 -21,5 -42,12 -63,13 6,28 -3,48 -1,60 6,26 8,76 -12,98 -7,8 -17,11 -29,12 -30,2 -32,-15 -50,-28 -13,11 -11,24 -7,42 11,59 47,117 34,176 -2,9 -3,12 -7,19 l -11,17 c -9,10 -18,17 -23,30 -7,17 -6,29 -27,31 -5,-8 -6,-7 -6,-19 -10,5 -7,0 -14,8 0,0 -7,12 -8,14 -19,0 -21,-5 -33,-14 -9,-6 -6,-3 -8,-11 -19,1 -6,3 -19,12 -18,-4 -26,-22 -35,-38 -9,4 -4,-6 -6,10 -12,-1 -8,-3 -22,-3 0,-52 9,-62 15,-108 3,-20 2,-36 4,-56 5,-29 6,-20 6,-57 -16,0 -41,7 -56,-3 l -45,-43 c -11,-3 -10,1 -22,-4 -6,-14 2,-20 4,-35 -13,1 -38,3 -52,5 -20,3 -28,-3 -51,-1 -39,2 -93,-18 -121,-20 -11,0 -15,-1 -25,-3 -31,-9 -102,-32 -120,-56 -20,5 -9,12 -50,-4 -16,-6 -33,-13 -41,-28 -15,4 -12,1 -21,-1 l -55,4 c -19,2 -13,15 -44,19 l -23,8 c -1,1 -4,1 -5,2 -1,0 -2,0 -2,1 -9,3 -5,4 -12,10 -10,7 -13,2 -24,7 0,24 0,47 0,70 0,50 -14,38 -44,60 -8,5 -13,13 -18,16 -14,10 -45,6 -58,-1 -30,46 -41,108 -58,159 -3,9 -6,9 -10,22 -4,18 -9,24 -22,38 -14,13 -16,23 -39,24 -30,1 -57,10 -81,-8 z"
   id="path10"
   style="fill:#000000" />
 </g>
</svg>
